2.8Hzhigh3min_grf.mot
version=1
nRows=15
nColumns 19
inDegrees=yes
endheader
time	1_ground_force_vx	1_ground_force_vy	1_ground_force_vz	1_ground_force_px	1_ground_force_py	1_ground_force_pz	1_ground_torque_x	1_ground_torque_y	1_ground_torque_z	2_ground_force_vx	2_ground_force_vy	2_ground_force_vz	2_ground_force_px	2_ground_force_py	2_ground_force_pz	2_ground_torque_x	2_ground_torque_y	2_ground_torque_z
            1.253500	           -0.226194	           -5.952154	            0.754612	           -0.233013	            0.005581	           -0.255695	           -0.649957	            0.833234	           -0.361540	           -0.037586	           -2.577911	           -0.103035	           -0.232311	            0.006130	           -0.833667	           -0.261662	           -0.387972	           -0.152073
            1.254000	           -0.180090	           -6.132804	            0.845437	           -0.233013	            0.005581	           -0.255695	           -0.578506	            0.509591	           -0.323548	           -0.370414	           -1.288216	           -0.614505	           -0.232311	            0.006130	           -0.833667	           -0.412987	           -0.086432	           -0.037828
            1.254500	           -0.775578	           -5.593105	            1.078514	           -0.233013	            0.005581	           -0.255695	           -0.606955	           -0.240040	           -0.201737	            0.011511	           -3.310988	           -1.044245	           -0.232311	            0.006130	           -0.833667	           -0.470520	            0.234891	           -0.074358
            1.255000	           -0.547223	           -6.492620	            0.661377	           -0.233013	            0.005581	           -0.255695	           -0.645251	           -0.784834	           -0.306961	           -0.274926	           -1.838649	           -1.085797	           -0.232311	            0.006130	           -0.833667	           -0.470860	            0.320234	           -0.149455
            1.255500	            0.002305	           -5.770664	            0.479680	           -0.233013	            0.005581	           -0.255695	           -0.468829	           -0.590603	           -0.245538	            0.147675	           -2.023618	           -0.429640	           -0.232311	            0.006130	           -0.833667	           -0.319930	            0.150359	           -0.074725
            1.256000	           -0.273681	           -5.048278	            0.162463	           -0.233013	            0.005581	           -0.255695	           -0.681012	            0.028526	           -0.254111	            0.056963	           -2.763227	            0.318621	           -0.232311	            0.006130	           -0.833667	           -0.412544	           -0.209317	           -0.038267
            1.256500	            0.139412	           -5.950117	            0.295142	           -0.233013	            0.005581	           -0.255695	           -0.629914	            0.657040	           -0.177524	            0.008866	           -2.395769	            0.507667	           -0.232311	            0.006130	           -0.833667	           -0.298970	           -0.445295	           -0.020308
            1.257000	           -0.043325	           -6.311667	            0.523331	           -0.233013	            0.005581	           -0.255695	           -0.470781	            0.759075	           -0.279279	           -0.223451	           -2.948558	            0.365012	           -0.232311	            0.006130	           -0.833667	           -0.262014	           -0.275011	           -0.019716
            1.257500	           -0.225657	           -5.772871	            0.984664	           -0.233013	            0.005581	           -0.255695	           -0.565753	            0.306142	           -0.307621	           -0.269280	           -3.314513	           -0.340204	           -0.232311	            0.006130	           -0.833667	           -0.356598	           -0.086497	            0.037549
            1.258000	           -0.638032	           -6.313944	            1.029225	           -0.233013	            0.005581	           -0.255695	           -0.623502	           -0.378230	           -0.290389	           -0.507826	           -2.207959	           -1.040084	           -0.232311	            0.006130	           -0.833667	           -0.414182	            0.253596	            0.038787
            1.258500	           -0.455181	           -5.952591	            0.846892	           -0.233013	            0.005581	           -0.255695	           -0.634408	           -0.766700	           -0.209029	           -0.134376	           -1.838141	           -1.085857	           -0.232311	            0.006130	           -0.833667	           -0.433264	            0.320168	           -0.092921
            1.259000	           -0.227691	           -5.228732	            0.207433	           -0.233013	            0.005581	           -0.255695	           -0.570027	           -0.489222	           -0.217049	            0.009681	           -2.759882	           -0.666849	           -0.232311	            0.006130	           -0.833667	           -0.394798	            0.074466	           -0.074963
            1.259500	            0.001835	           -6.310478	            0.248082	           -0.233013	            0.005581	           -0.255695	           -0.628082	            0.223261	           -0.354423	            0.615736	           -1.839619	            0.087027	           -0.232311	            0.006130	           -0.833667	           -0.318642	           -0.208776	           -0.094857
            1.260000	            0.092155	           -6.308101	           -0.302417	           -0.233013	            0.005581	           -0.255695	           -0.548246	            0.731444	           -0.292139	            0.477262	           -2.393241	            0.272828	           -0.232311	            0.006130	           -0.833667	           -0.280304	           -0.416734	           -0.057915
            1.260500	            0.139349	           -6.851052	            0.199566	           -0.233013	            0.005581	           -0.255695	           -0.588115	            0.666691	           -0.271545	            0.103792	           -2.762891	            0.271673	           -0.232311	            0.006130	           -0.833667	           -0.299499	           -0.303370	           -0.057502
